<svg xmlns="http://www.w3.org/2000/svg" viewBox="0 0 64 64">
  <defs>
    <linearGradient id="bg" x1="10" y1="8" x2="54" y2="58" gradientUnits="userSpaceOnUse">
      <stop offset="0" stop-color="#35675f"/>
      <stop offset=".55" stop-color="#b85f45"/>
      <stop offset="1" stop-color="#c59a32"/>
    </linearGradient>
    <linearGradient id="spark" x1="18" y1="18" x2="47" y2="48" gradientUnits="userSpaceOnUse">
      <stop offset="0" stop-color="#fff8ed"/>
      <stop offset="1" stop-color="#f3d47a"/>
    </linearGradient>
  </defs>
  <rect width="64" height="64" rx="14" fill="#20231f"/>
  <rect x="8" y="8" width="48" height="48" rx="11" fill="url(#bg)"/>
  <rect x="16" y="20" width="32" height="24" rx="4" fill="#fff8ed"/>
  <path d="M19 39l8-8 6 6 5-5 7 7H19z" fill="#35675f"/>
  <circle cx="25" cy="27" r="3.5" fill="#b85f45"/>
  <path d="M43 13l2.1 5.3 5.4 2-5.4 2.1L43 28l-2.1-5.6-5.4-2.1 5.4-2L43 13z" fill="url(#spark)"/>
  <path d="M19 10l1.2 3 3.1 1.2-3.1 1.2-1.2 3-1.2-3-3.1-1.2 3.1-1.2 1.2-3z" fill="#fff8ed" opacity=".9"/>
</svg>
